<?xml version="1.0"?>
<svg xmlns="http://www.w3.org/2000/svg" xmlns:xlink="http://www.w3.org/1999/xlink" xmlns:svgjs="http://svgjs.com/svgjs" version="1.1" width="512" height="512" x="0" y="0" viewBox="0 0 512 512" style="enable-background:new 0 0 512 512" xml:space="preserve" class=""><g><g xmlns="http://www.w3.org/2000/svg"><g><path d="m256 22c-135.31 0-245 109.69-245 245 0 129.177 99.975 234.998 226.771 244.325l18.229-9.687 18.229 9.687c126.796-9.327 226.771-115.148 226.771-244.325 0-135.31-109.69-245-245-245z" fill="#ffffff" data-original="#49b1f7" style="" class=""/></g><g><circle cx="256" cy="302" fill="#ffffff" r="190" data-original="#548bed" style="" class=""/></g><g><path d="m237.77 511.325c6.02.443 12.098.675 18.23.675s12.21-.232 18.23-.675c.965-87.569 6.816-172.121 42.333-196.571h-121.126c35.517 24.45 41.369 109.002 42.333 196.571z" fill="#d3dcfb" data-original="#d3dcfb" style="" class=""/></g><g><path d="m195.437 314.754c20.009 13.774 30.602 46.627 36.211 88.345 5.14-8.016 14.122-13.333 24.352-13.333s19.212 5.317 24.352 13.333c5.609-41.718 16.202-74.57 36.211-88.345z" fill="#bec8f7" data-original="#bec8f7" style="" class=""/></g><g><path d="m345.035 0h-178.07c-7.315 0-14.043 3.984-17.548 10.404-14.979 27.438-53.417 103.957-53.417 166.621 0 88.362 102.643 154.843 160 154.843s160-66.481 160-154.843c0-62.664-38.438-139.183-53.416-166.62-3.505-6.421-10.234-10.405-17.549-10.405z" fill="#deeeff" data-original="#deeeff" style="" class=""/></g><g><path d="m166.965 0c-7.315 0-14.044 3.984-17.548 10.404-14.979 27.438-53.417 103.957-53.417 166.621 0 88.362 102.643 154.843 160 154.843 17.397 0 38.961-6.126 60.563-17.114-133.033-63.65-151.903-203.924-112.074-314.754z" fill="#d3dcfb" data-original="#d3dcfb" style="" class=""/></g><g><path d="m122.976 142.068c-5.21.837-9.291 4.966-10.053 10.188-1.23 8.431-1.923 16.74-1.923 24.769 0 47.239 33.305 82.357 53.157 99.086 28.928 24.378 65.837 40.756 91.843 40.756s62.915-16.378 91.843-40.756c19.852-16.729 53.157-51.847 53.157-99.086 0-.047 0-.094 0-.14-.007-7.383-6.689-12.945-13.985-11.818-117.075 18.087-145.956-41.979-264.039-22.999z" fill="#ff7186" data-original="#ff7186" style="" class=""/></g><g><path d="m164.157 276.111c28.928 24.378 65.837 40.756 91.843 40.756 12.752 0 28.127-3.946 43.896-10.835-68.982-39.242-102.943-101.047-111.614-166.82-18.84-1.64-40.02-1.207-65.292 2.853-5.216.838-9.306 4.963-10.068 10.19-1.23 8.431-1.923 16.74-1.923 24.769.001 47.24 33.306 82.358 53.158 99.087z" fill="#ff4155" data-original="#ff4155" style="" class=""/></g></g></g></svg>
