<svg height="511pt" viewBox="-9 0 511 511.99964" width="511pt" xmlns="http://www.w3.org/2000/svg"><path d="m179.101562 349.308594c4.855469 3.929687 9.890626 7.617187 15.074219 11.074218 10.460938 4 21.238281 6.695313 32.101563 8.140626-.125-5.472657-2.253906-10.910157-6.433594-15.085938l-64.1875-64.191406c-11.386719-11.386719-11.386719-29.851563 0-41.238282 11.386719-11.386718 29.851562-11.386718 41.242188 0l14.425781 14.425782c30.609375 30.609375 67.320312 54.429687 107.746093 69.910156 5.09375 1.953125 10.121094 4.035156 15.085938 6.246094 27.425781-21.898438 45.925781-53.230469 51.722656-88.085938l25.183594-151.390625-116.085938-67.019531-116.785156 96.074219c-29.9375 24.632812-48.570312 60.386719-51.601562 99.039062-3.675782 46.863281 15.964844 92.535157 52.511718 122.101563zm0 0" fill="#c9f3ff"/><path d="m343.5625 230.703125c-25.828125 3.835937-61.554688 1.039063-105.320312-22.523437-30.074219-16.191407-56.246094-22.34375-77.980469-23.195313l-44.003907 16.222656c-3.675781 46.863281 10.964844 104.535157 47.511719 134.101563v3c16.5 13.351562 34.996094 13.027344 54.808594 20.644531 2.398437.921875 4.816406 1.769531 7.246094 2.554687-.847657-4.054687-2.828125-7.921874-5.980469-11.070312l-64.1875-64.191406c-11.386719-11.386719-11.386719-29.851563 0-41.238282 11.386719-11.386718 29.851562-11.386718 41.242188 0l14.425781 14.425782c30.609375 30.609375 67.320312 54.429687 107.746093 69.914062 5.902344 2.257813 11.714844 4.703125 17.445313 7.3125 26.125-21.789062 43.734375-52.3125 49.363281-86.15625l4.414063-26.519531c-11.761719 4.09375-27.480469 7.417969-46.730469 6.71875zm0 0" fill="#ff5d5d"/><path d="m313.070312 363.347656c-40.425781-15.484375-77.136718-39.304687-107.746093-69.914062l-14.425781-14.425782c-11.386719-11.386718-29.851563-11.386718-41.242188 0-.050781.054688-.101562.109376-.15625.167969 1.417969 3.292969 3.464844 6.382813 6.15625 9.074219l64.191406 64.1875c8.609375 8.609375 8.609375 22.570312 0 31.183594-1.234375 1.230468-2.585937 2.265625-4.003906 3.144531 6.527344 8.640625 5.878906 20.980469-1.996094 28.855469-8.613281 8.609375-22.574218 8.609375-31.183594 0l-38.023437-38.027344c-46.324219-46.324219-78.488281-104.882812-92.726563-168.828125-2.445312-10.972656-12.179687-18.777344-23.421874-18.777344-6.285157 0-11.953126 2.402344-16.199219 6.296875 11.179687 72.042969 41.957031 139.710938 89.089843 195.523438 27.191407 32.203125 61.609376 57.519531 100.449219 73.894531l86.097657 36.292969h189.140624v-.1875l-30.648437-39.507813c-34.5625-44.558593-80.6875-78.785156-133.351563-98.953125zm0 0" fill="#fccf9d"/><path d="m490.96875 463.679688-30.644531-39.507813c-28.933594-37.300781-65.699219-67.578125-107.554688-88.800781 22.59375-22.472656 37.71875-51.621094 42.976563-83.226563l25.179687-151.386719c.6875-4.113281-1.253906-8.21875-4.863281-10.300781l-154.351562-89.117187c-3.613282-2.085938-8.136719-1.710938-11.355469.9375l-118.515625 97.503906c-31.863282 26.214844-51.988282 64.839844-55.21875 105.976562-.027344.347657-.039063.691407-.066406 1.035157-3.476563-10.542969-6.453126-21.285157-8.882813-32.203125-3.488281-15.664063-17.132813-26.601563-33.179687-26.601563-9.75 0-19.042969 4.195313-25.492188 11.507813s-9.453125 17.054687-8.234375 26.730468c9.863281 78.367188 42.015625 151.6875 92.976563 212.035157 5.96875 7.070312 12.320312 13.816406 18.972656 20.25l-19.574219 33.90625-53.554687-30.921875c-4.785157-2.761719-10.902344-1.121094-13.660157 3.660156-2.761719 4.785156-1.125 10.898438 3.660157 13.660156l124.429687 71.839844c1.574219.910156 3.292969 1.339844 4.988281 1.339844 3.457032 0 6.820313-1.792969 8.671875-5 2.761719-4.78125 1.121094-10.898438-3.660156-13.660156l-53.554687-30.917969 17.453124-30.230469c21.078126 17.578125 44.742188 32.066406 70.03125 42.726562l86.097657 36.296876c1.269531.535156 2.585937.789062 3.882812.789062 3.898438 0 7.609375-2.296875 9.21875-6.117188 2.144531-5.089843-.242187-10.953124-5.328125-13.101562l-86.101562-36.292969c-37.207032-15.6875-70.644532-40.28125-96.691406-71.128906-48.460938-57.386719-79.035157-127.109375-88.414063-201.628906-.511719-4.042969.695313-7.949219 3.390625-11.003907 2.691406-3.054687 6.417969-4.738281 10.492188-4.738281 6.605468 0 12.222656 4.503907 13.65625 10.953125 9.859374 44.261719 27.992187 85.890625 53.292968 122.921875 1.351563 2.046875 2.765625 4.058594 4.21875 6.046875 11.328125 15.855469 23.984375 30.832032 37.90625 44.753906l38.023438 38.027344c6.054687 6.054688 14.105468 9.386719 22.664062 9.386719s16.609375-3.332031 22.664063-9.386719c12.492187-12.496094 12.492187-32.828125 0-45.324218l-64.1875-64.1875c-3.621094-3.621094-5.613281-8.433594-5.613281-13.550782 0-5.117187 1.992187-9.929687 5.613281-13.546875 7.46875-7.472656 19.625-7.472656 27.097656 0l14.425781 14.425781c31.804688 31.808594 69.234375 56.09375 111.242188 72.179688 50.960937 19.519531 95.578125 52.625 129.023437 95.746094l30.648438 39.507812c3.382812 4.363282 9.667969 5.15625 14.03125 1.769532 4.363281-3.386719 5.15625-9.667969 1.769531-14.03125zm-346.421875-348.453126 113.164063-93.101562 25.394531 14.660156-53.71875 44.191406c-4.261719 3.511719-4.875 9.8125-1.367188 14.078126 1.976563 2.402343 4.839844 3.644531 7.730469 3.644531 2.234375 0 4.484375-.746094 6.347656-2.277344l59.507813-48.957031 98.453125 56.84375-16.839844 101.242187c-7.574219 5.414063-58.617188 37.761719-140.234375-6.175781-51.859375-27.921875-92.917969-26.933594-118.230469-21.1875-9.882812 2.242188-18.210937 5.367188-24.890625 8.492188 6.734375-27.808594 22.402344-53.125 44.683594-71.453126zm59.707031 264.851563c-3.21875 0-6.246094-1.253906-8.519531-3.53125l-7.921875-7.917969c.835938.332032 1.667969.667969 2.511719.992188 7.339843 2.824218 14.933593 5.074218 22.625 6.734375-.0625.0625-.113281.132812-.175781.195312-2.273438 2.273438-5.300782 3.527344-8.519532 3.527344zm14.140625-125.714844-14.425781-14.425781c-15.269531-15.269531-40.113281-15.269531-55.382812 0-7.394532 7.394531-11.472657 17.230469-11.472657 27.691406 0 10.460938 4.074219 20.292969 11.472657 27.691406l59.058593 59.058594c-3.425781-1.007812-6.816406-2.144531-10.144531-3.425781-18.863281-7.253906-36.394531-17.375-52.109375-30.085937-8.929687-7.222657-16.757813-15.488282-23.410156-24.519532-1.324219-1.855468-2.628907-3.726562-3.914063-5.605468-15.269531-23.160157-23.074218-50.804688-21.769531-79.128907 11.609375-8.105469 60.492187-35.925781 137.207031 5.371094 35.898438 19.324219 66.746094 25.097656 90.792969 25.097656 10.628906 0 19.933594-1.125 27.75-2.710937 10.894531-2.207032 19.9375-5.460938 26.992187-8.664063l-3.023437 18.15625c-4.976563 29.921875-20.128906 57.316407-42.765625 77.429688-3.503906-1.488281-7.039062-2.917969-10.601562-4.285157-39.371094-15.078124-74.445313-37.835937-104.253907-67.644531zm0 0"/><path d="m208.722656 120.929688c2.628906 0 5.210938-1.070313 7.070313-2.929688s2.929687-4.441406 2.929687-7.070312c0-2.628907-1.070312-5.210938-2.929687-7.070313-1.863281-1.859375-4.429688-2.929687-7.070313-2.929687-2.628906 0-5.210937 1.070312-7.070312 2.929687s-2.929688 4.441406-2.929688 7.070313c0 2.628906 1.070313 5.210937 2.929688 7.070312s4.441406 2.929688 7.070312 2.929688zm0 0"/></svg>